HIERARCHY
ROOT ui
{
	 OFFSET 0 0 0
	 CHANNELS 3 XPosition YPosition Z Position
	 EndSite
	 {
	 OFFSET 0 -1 0
	 }
}
ROOT li
{
	 OFFSET 0 0 0
	 CHANNELS 3 XPosition YPosition Z Position
	 EndSite
	 {
	 OFFSET 0 -1 0
	 }
}
ROOT ul
{
	 OFFSET 0 0 0
	 CHANNELS 3 XPosition YPosition Z Position
	 EndSite
	 {
	 OFFSET 0 -1 0
	 }
}
ROOT ll
{
	 OFFSET 0 0 0
	 CHANNELS 3 XPosition YPosition Z Position
	 EndSite
	 {
	 OFFSET 0 -1 0
	 }
}
ROOT tt
{
	 OFFSET 0 0 0
	 CHANNELS 3 XPosition YPosition Z Position
	 EndSite
	 {
	 OFFSET 0 -1 0
	 }
}
ROOT tb
{
	 OFFSET 0 0 0
	 CHANNELS 3 XPosition YPosition Z Position
	 EndSite
	 {
	 OFFSET 0 -1 0
	 }
}
ROOT td
{
	 OFFSET 0 0 0
	 CHANNELS 3 XPosition YPosition Z Position
	 EndSite
	 {
	 OFFSET 0 -1 0
	 }
}
ROOT v
{
	 OFFSET 0 0 0
	 CHANNELS 3 XPosition YPosition Z Position
	 EndSite
	 {
	 OFFSET 0 -1 0
	 }
}
ROOT bn
{
	 OFFSET 0 0 0
	 CHANNELS 3 XPosition YPosition Z Position
	 EndSite
	 {
	 OFFSET 0 -1 0
	 }
}
MOTION
Frames: 26
Frame Time: 0.002
-0.024640913009643554	-0.0023047130107879637	0		0.5954949340820312	-2.6101083984375	0		-0.8438687133789062	-0.029059610366821288	0		-0.34146136474609373	-2.731968505859375	0		1.3399290771484376	-0.7197291870117187	0		2.9275361328125	-0.38382351684570315	0		4.34939453125	-0.2766607971191406	0		5.87669580078125	0.28171112060546877	0		-0.25711569213867186	5.8386376953125	0		
-0.029058866500854492	0.0017374939918518067	0		0.5420526123046875	-2.60370166015625	0		-0.8333257446289063	-0.030118942260742188	0		-0.3530520324707031	-2.744867431640625	0		1.3434002685546875	-0.7287692260742188	0		2.929234130859375	-0.3638741455078125	0		4.35401025390625	-0.2677564392089844	0		5.8763740234375	0.29762939453125	0		-0.2214427490234375	5.8423779296875	0		
-0.0016333220005035401	0.0015620169639587401	0		0.5902953491210937	-2.622047119140625	0		-0.8948062133789062	-0.017599624633789064	0		-0.32994873046875	-2.781005615234375	0		1.3548214111328125	-0.7278455810546876	0		2.936730712890625	-0.35394711303710935	0		4.35850830078125	-0.2578306884765625	0		5.881736328125	0.28852215576171875	0		-0.25297735595703125	5.83465771484375	0		
0.018678112030029295	0.0034655239582061766	0		0.5566536254882812	-2.607740234375	0		-0.8873873291015625	-0.0015808010101318359	0		-0.26982635498046875	-2.79740283203125	0		1.3551051025390626	-0.727812744140625	0		2.970380859375	-0.30719720458984373	0		4.36197705078125	-0.23487521362304686	0		5.886099609375	0.29644317626953126	0		-0.21853143310546874	5.8404580078125	0		
-0.0011730109453201294	0.0017011760473251343	0		0.5967530517578125	-2.60997607421875	0		-0.89125439453125	-0.005451636791229248	0		-0.32083538818359375	-2.8129228515625	0		1.360109130859375	-0.7467933349609375	0		2.924524658203125	-0.3088153991699219	0		4.3731357421875	-0.2349573974609375	0		5.8772763671875	0.29748699951171875	0		-0.2532986297607422	5.8358134765625	0		
-0.02317674446105957	-0.002023672103881836	0		0.5417569580078125	-2.606457275390625	0		-0.8821666259765625	0.002600244998931885	0		-0.28906137084960937	-2.839057861328125	0		1.366083251953125	-0.7517587280273438	0		2.94573779296875	-0.28392572021484375	0		4.36129736328125	-0.21683929443359376	0		5.88630810546875	0.29741644287109376	0		-0.21912117004394532	5.8416611328125	0		
-0.0232908935546875	-0.001896602988243103	0		0.6124097900390625	-2.63088818359375	0		-0.8782498779296875	0.006711252212524414	0		-0.35933880615234376	-2.853384521484375	0		1.3719095458984376	-0.7577020874023438	0		2.9616103515625	-0.28497402954101564	0		4.3581640625	-0.21876539611816406	0		5.89113720703125	0.289402099609375	0		-0.2181412353515625	5.84078369140625	0		
-0.028513944625854493	0.0022884581089019774	0		0.5522542724609375	-2.612287841796875	0		-0.8694500122070312	0.013801638603210448	0		-0.2838040771484375	-2.874820556640625	0		1.385572998046875	-0.7666863403320312	0		2.955654052734375	-0.24583059692382814	0		4.37312255859375	-0.190806884765625	0		5.88594189453125	0.2964913330078125	0		-0.2183008270263672	5.84093359375	0		
0.010119808197021485	0.005149837017059326	0		0.607802978515625	-2.615566650390625	0		-0.8607763671875	0.021907846450805665	0		-0.31534185791015623	-2.888411865234375	0		1.3851734619140625	-0.7665427856445313	0		2.963246337890625	-0.24777183532714844	0		4.37982421875	-0.17876133728027344	0		5.88962744140625	0.3055382995605469	0		-0.20252734375	5.8509755859375	0		
-0.02444607925415039	-0.0014067790508270263	0		0.6131563720703125	-2.62844140625	0		-0.8612886962890625	0.022097719192504882	0		-0.26207110595703126	-2.91164794921875	0		1.392534423828125	-0.78144287109375	0		2.986955078125	-0.21881741333007812	0		4.38438720703125	-0.16867648315429687	0		5.89811865234375	0.30557339477539064	0		-0.18301364135742187	5.845001953125	0		
-0.0030395689010620118	0.0026138460636138915	0		0.6005515747070312	-2.6221630859375	0		-0.853850341796875	0.030236053466796874	0		-0.30476358032226564	-2.91612646484375	0		1.3978553466796875	-0.7873124389648437	0		2.9832900390625	-0.22363389587402344	0		4.3908544921875	-0.15658613586425782	0		5.888498046875	0.3057725830078125	0		-0.2536590576171875	5.83474072265625	0		
-0.025789812088012697	-0.0010133780241012573	0		0.6077305297851563	-2.632029052734375	0		-0.8495388793945312	0.034405727386474606	0		-0.272712646484375	-2.9421787109375	0		1.3990584716796874	-0.7961388549804688	0		2.978747802734375	-0.20042852783203124	0		4.38321923828125	-0.1453694305419922	0		5.88778125	0.3059218444824219	0		-0.252343017578125	5.8329287109375	0		
-0.022625371932983397	-0.0058367009162902835	0		0.5569869384765626	-2.622436279296875	0		-0.95030859375	0.03839910888671875	0		-0.28867010498046874	-2.959851806640625	0		1.416208984375	-0.80208154296875	0		2.986941650390625	-0.20131251525878907	0		4.38749951171875	-0.13523263549804687	0		5.89597900390625	0.30501699829101564	0		-0.2511132659912109	5.83112255859375	0		
0.0626385269165039	0.008702651977539062	0		0.6131202392578124	-2.62267333984375	0		-0.8281080322265625	0.04465506744384766	0		-0.2755685729980469	-2.96374853515625	0		1.41535400390625	-0.8018785400390624	0		3.009409423828125	-0.16029887390136718	0		4.4097880859375	-0.11722601318359376	0		5.90326220703125	0.3221324157714844	0		-0.20181613159179687	5.8459443359375	0		
-0.02831844902038574	-3.8346999883651735E-4	0		0.5532149047851562	-2.62400390625	0		-0.909947998046875	0.050501556396484376	0		-0.2776408996582031	-2.98652783203125	0		1.4053914794921876	-0.8116021118164063	0		2.99039501953125	-0.17695799255371095	0		4.41206201171875	-0.0970554656982422	0		5.88931982421875	0.3144231262207031	0		-0.2187534637451172	5.83628125	0		
0.05474685668945312	-0.005831177234649658	0		0.5943231201171875	-2.623125	0		-0.8308121948242188	0.05408658218383789	0		-0.267602783203125	-2.99440478515625	0		1.4573858642578126	-0.8258103637695312	0		3.02262548828125	-0.16101408386230467	0		4.4142158203125	-0.09087981414794923	0		5.89336474609375	0.30658062744140624	0		-0.21963487243652344	5.83648974609375	0		
-0.03413119506835938	-0.003942172050476075	0		0.549411376953125	-2.62557958984375	0		-0.945689453125	0.056179012298583984	0		-0.30061654663085935	-3.00995263671875	0		1.4594266357421875	-0.83463232421875	0		3.02173681640625	-0.16081356811523437	0		4.4143662109375	-0.08568783569335937	0		5.89653857421875	0.31474847412109375	0		-0.25455900573730467	5.83195751953125	0		
0.048018688201904296	-0.0013976110219955445	0		0.6045177612304687	-2.628823486328125	0		-0.8944761962890625	0.06696453094482421	0		-0.29559414672851564	-3.023806396484375	0		1.46753271484375	-0.8375082397460938	0		3.02606103515625	-0.13565760803222657	0		4.43358837890625	-0.07364726257324218	0		5.89566748046875	0.314947021484375	0		-0.2534513549804687	5.83013427734375	0		
-0.031813894271850586	4.013490080833435E-4	0		0.5517369995117187	-2.621234375	0		-0.929286865234375	0.07141000366210938	0		-0.2695169677734375	-3.03483544921875	0		1.4666917724609374	-0.8373228759765625	0		3.031140380859375	-0.1455153045654297	0		4.43590185546875	-0.05347934341430664	0		5.89888623046875	0.3231107482910156	0		-0.22026905822753906	5.83505029296875	0		
0.046370048522949216	-0.0010450899600982666	0		0.592946533203125	-2.62039013671875	0		-0.8920941162109375	0.0712804412841797	0		-0.2804058837890625	-3.046587890625	0		1.4767947998046875	-0.8492332763671875	0		3.067435302734375	-0.13262405395507812	0		4.45114208984375	-0.047419261932373044	0		5.9070869140625	0.3242305603027344	0		-0.22109465026855468	5.8352197265625	0		
-0.029420963287353517	-0.004302803993225098	0		0.6001177978515625	-2.63029248046875	0		-0.8988173828125	0.07648017120361328	0		-0.22429664611816405	-3.0648759765625	0		1.4999576416015625	-0.859256591796875	0		3.04466650390625	-0.13328189086914063	0		4.44544287109375	-0.039203834533691403	0		5.9063154296875	0.3234136962890625	0		-0.22188250732421874	5.8353759765625	0		
0.04683198928833008	-0.008759604454040528	0		0.59739453125	-2.63313037109375	0		-0.9315693359375	0.07186844635009766	0		-0.29799212646484374	-3.064164794921875	0		1.4842022705078124	-0.8649884033203125	0		3.059945556640625	-0.13424745178222655	0		4.46382275390625	-0.02718593978881836	0		5.9015380859375	0.31561898803710936	0		-0.25568757629394534	5.827775390625	0		
-0.034757663726806644	0.001001373052597046	0		0.5488418579101563	-2.62062353515625	0		-0.9521768188476563	0.07914894104003906	0		-0.2547476806640625	-3.078378662109375	0		1.5184658203125	-0.8751222534179688	0		3.0572216796875	-0.14208444213867188	0		4.47619921875	-0.022132314682006837	0		5.8959365234375	0.32382073974609377	0		-0.25439796447753904	5.825888671875	0		
0.05564497375488281	0.0024112279415130617	0		0.6032215576171875	-2.623929931640625	0		-0.9147185668945312	0.08796585083007813	0		-0.294354736328125	-3.079958251953125	0		1.525946044921875	-0.8640579223632813	0		3.11578955078125	-0.11940858459472656	0		4.48669775390625	-0.008074552536010741	0		5.91332373046875	0.32383251953125	0		-0.255041259765625	5.82600537109375	0		
-0.03592727279663086	0.0012276439666748047	0		0.5726700439453125	-2.6245849609375	0		-0.9212394409179687	0.09311553955078125	0		-0.24695269775390624	-3.087224609375	0		1.5373055419921875	-0.875033935546875	0		3.0560537109375	-0.14182316589355468	0		4.48120068359375	9.769699722528458E-5	0		5.90770068359375	0.3160133056640625	0		-0.2566257019042969	5.8271201171875	0		
0.04255031585693359	-2.8658199310302733E-4	0		0.5971327514648438	-2.629676025390625	0		-0.921752197265625	0.09321031951904298	0		-0.2884854431152344	-3.091807373046875	0		1.5775560302734375	-0.9062432250976562	0		3.101540771484375	-0.14206382751464844	0		4.49762548828125	-0.007909451961517334	0		5.9032568359375	0.32517672729492186	0		-0.22311688232421875	5.8339541015625	0		
